<svg xmlns="http://www.w3.org/2000/svg" width="318.367" height="332.86" viewBox="0 0 318.367 332.86">
  <defs>
    <style>
      .cls-1 {
        fill: #d6d8e5;
        opacity: 0.4;
      }

      .cls-2 {
        fill: #252935;
      }

      .cls-3 {
        fill: #2b303f;
      }

      .cls-4 {
        fill: #3a4151;
      }

      .cls-5 {
        fill: #e6e9ef;
      }

      .cls-6 {
        fill: #f4f6f9;
      }

      .cls-7 {
        fill: #e8a30a;
      }

      .cls-8 {
        fill: #f9cb07;
      }

      .cls-9 {
        fill: #ab210d;
      }

      .cls-10 {
        fill: #ff582b;
      }

      .cls-11 {
        fill: #a5ad00;
      }

      .cls-12 {
        fill: #b9cc00;
      }

      .cls-13 {
        opacity: 0.1;
      }

      .cls-14 {
        fill: #3a2c6d;
      }

      .cls-15 {
        fill: #ffcea9;
      }

      .cls-16 {
        fill: #f4f4f4;
      }

      .cls-17 {
        fill: #38226d;
      }

      .cls-18 {
        fill: #9c73ff;
      }

      .cls-19 {
        fill: #8c50ff;
      }

      .cls-20 {
        fill: #ededed;
      }

      .cls-21 {
        fill: #bfbfbf;
      }

      .cls-22 {
        fill: #e5e5e5;
      }
    </style>
  </defs>
  <g id="Online_education_SVG" transform="translate(159.184 166.43)">
    <g id="Online_education_SVG-2" data-name="Online_education_SVG" transform="translate(-159.184 -166.43)">
      <g id="Слой_1" data-name="Слой 1">
        <path id="パス_2398" data-name="パス 2398" class="cls-1" d="M309.593,305.524,176.07,228.44,4.454,327.519,0,330.262l136.765,78.961L312.982,307.481v-3.908Z" transform="translate(0 -76.363)"/>
        <path id="パス_2399" data-name="パス 2399" class="cls-2" d="M317.606,300.82,184.083,223.73,11.249,323.515,7.86,321.558v3.914L144.772,404.52,320.995,302.778v-3.914Z" transform="translate(-2.627 -74.788)"/>
        <path id="パス_2400" data-name="パス 2400" class="cls-3" d="M144.772,398.64,7.86,319.592,184.083,217.85,320.995,296.9Z" transform="translate(-2.627 -72.823)"/>
        <path id="パス_2401" data-name="パス 2401" class="cls-4" d="M13,358.293c.419-.093,4.034-2.33,4.034-2.33V330.1L13,327.77Z" transform="translate(-4.346 -109.567)"/>
        <path id="パス_2402" data-name="パス 2402" class="cls-5" d="M148.4,426.2,18.46,351.362v-36.5l2.084-1.711L148.4,386.279Z" transform="translate(-6.171 -104.68)"/>
        <path id="パス_2403" data-name="パス 2403" class="cls-6" d="M382.507,317.466,213.64,415.008V375.091L378.825,279.68l3.681,2.277Z" transform="translate(-71.416 -93.491)"/>
        <path id="パス_2404" data-name="パス 2404" class="cls-2" d="M317.606,249.09,184.083,172,11.249,271.785,7.86,269.828v3.914L144.772,352.79,320.995,251.048V247.14Z" transform="translate(-2.627 -57.496)"/>
        <path id="パス_2405" data-name="パス 2405" class="cls-3" d="M144.772,346.913,7.86,267.865,184.083,166.13l136.912,79.048Z" transform="translate(-2.627 -55.534)"/>
        <path id="パス_2406" data-name="パス 2406" class="cls-2" d="M7.86,353.388V318.95l3.389,1.957V359.12Z" transform="translate(-2.627 -106.619)"/>
        <path id="パス_2407" data-name="パス 2407" class="cls-7" d="M309.516,241.456,182.982,168.4,19.2,262.959l-3.215-1.851v3.708l129.749,74.907,167-96.416V239.6Z" transform="translate(-5.342 -56.293)"/>
        <path id="パス_2408" data-name="パス 2408" class="cls-8" d="M145.729,334.153,15.98,259.246l167-96.416,129.749,74.907Z" transform="translate(-5.342 -54.431)"/>
        <path id="パス_2409" data-name="パス 2409" class="cls-8" d="M20.81,295.919c.393-.087,3.821-2.2,3.821-2.2V269.2L20.81,267Z" transform="translate(-6.956 -89.253)"/>
        <path id="パス_2410" data-name="パス 2410" class="cls-5" d="M149.162,360.268,26.03,289.349V254.764L28,253.14l121.161,69.3Z" transform="translate(-8.701 -84.62)"/>
        <path id="パス_2411" data-name="パス 2411" class="cls-6" d="M371.022,257.229,210.99,349.664V311.838L367.534,221.42l3.488,2.157Z" transform="translate(-70.53 -74.016)"/>
        <path id="パス_2412" data-name="パス 2412" class="cls-7" d="M309.516,192.436,182.982,119.38,19.2,213.939l-3.215-1.851V215.8L145.729,290.7l167-96.416v-3.708Z" transform="translate(-5.342 -39.906)"/>
        <path id="パス_2413" data-name="パス 2413" class="cls-8" d="M145.729,285.133,15.98,210.226l167-96.416,129.749,74.907Z" transform="translate(-5.342 -38.044)"/>
        <path id="パス_2414" data-name="パス 2414" class="cls-7" d="M15.98,291.274V258.64l3.215,1.851v36.215Z" transform="translate(-5.342 -86.458)"/>
        <path id="パス_2415" data-name="パス 2415" class="cls-9" d="M306.364,181.174,185.476,111.38,29,201.725l-3.069-1.771V203.5l123.957,71.565,159.546-92.116V179.4Z" transform="translate(-8.668 -37.232)"/>
        <path id="パス_2416" data-name="パス 2416" class="cls-10" d="M149.887,269.741,25.93,198.176,185.476,106.06l123.957,71.565Z" transform="translate(-8.668 -35.454)"/>
        <path id="パス_2417" data-name="パス 2417" class="cls-10" d="M30.54,233.214c.379-.093,3.655-2.11,3.655-2.11v-23.42l-3.655-2.1Z" transform="translate(-10.209 -68.721)"/>
        <path id="パス_2418" data-name="パス 2418" class="cls-5" d="M153.169,294.681,35.53,226.937V193.891l1.884-1.551,115.755,66.206Z" transform="translate(-11.877 -64.295)"/>
        <path id="パス_2419" data-name="パス 2419" class="cls-6" d="M365.123,196.248l-152.883,88.3V248.414L361.794,162.03l3.329,2.064Z" transform="translate(-70.948 -54.163)"/>
        <path id="パス_2420" data-name="パス 2420" class="cls-9" d="M306.364,134.344,185.476,64.55,29,154.888l-3.069-1.771v3.542l123.957,71.572,159.546-92.116v-3.542Z" transform="translate(-8.668 -21.578)"/>
        <path id="パス_2421" data-name="パス 2421" class="cls-10" d="M149.887,222.9,25.93,151.339,185.476,59.23l123.957,71.565Z" transform="translate(-8.668 -19.799)"/>
        <path id="パス_2422" data-name="パス 2422" class="cls-9" d="M25.93,228.772V197.59L29,199.361v34.6Z" transform="translate(-8.668 -66.05)"/>
        <path id="パス_2423" data-name="パス 2423" class="cls-11" d="M308.207,128.392,180.934,54.91,16.2,150.021l-3.235-1.864v3.735l130.508,75.346,167.974-96.982v-3.728Z" transform="translate(-4.332 -18.355)"/>
        <path id="パス_2424" data-name="パス 2424" class="cls-12" d="M143.468,221.632,12.96,146.285,180.934,49.31l130.508,75.346Z" transform="translate(-4.332 -16.483)"/>
        <path id="パス_2425" data-name="パス 2425" class="cls-12" d="M17.82,183.182c.393-.087,3.841-2.217,3.841-2.217V156.333L17.82,154.11Z" transform="translate(-5.957 -51.516)"/>
        <path id="パス_2426" data-name="パス 2426" class="cls-5" d="M146.921,247.893,23.07,176.568v-34.8l1.984-1.631,121.867,69.708Z" transform="translate(-7.712 -46.846)"/>
        <path id="パス_2427" data-name="パス 2427" class="cls-6" d="M370.074,144.262,209.11,237.23V199.184L366.566,108.24l3.508,2.17Z" transform="translate(-69.901 -36.182)"/>
        <path id="パス_2428" data-name="パス 2428" class="cls-11" d="M308.207,79.082,180.934,5.6,16.2,100.718,12.96,98.854v3.728l130.508,75.346L311.442,80.946V77.218Z" transform="translate(-4.332 -1.872)"/>
        <path id="パス_2429" data-name="パス 2429" class="cls-12" d="M143.468,172.328,12.96,96.982,180.934,0,311.442,75.346Z" transform="translate(-4.332)"/>
        <path id="パス_2430" data-name="パス 2430" class="cls-11" d="M12.96,178.5V145.68l3.235,1.864v36.422Z" transform="translate(-4.332 -48.698)"/>
        <path id="パス_2431" data-name="パス 2431" class="cls-13" d="M300.637,116.011,195.44,55.278l10.845-6.258,105.2,60.734Z" transform="translate(-65.332 -16.386)"/>
        <path id="パス_2432" data-name="パス 2432" class="cls-13" d="M266.513,127.318,196,86.609l5.426-3.129,70.513,40.709Z" transform="translate(-65.519 -27.906)"/>
        <path id="パス_2433" data-name="パス 2433" class="cls-13" d="M248.713,139.014,178.2,98.3l5.419-3.129,70.513,40.709Z" transform="translate(-59.569 -31.813)"/>
        <path id="パス_2434" data-name="パス 2434" class="cls-13" d="M223.809,144.77,176.45,117.429l5.426-3.129,47.353,27.341Z" transform="translate(-58.984 -38.208)"/>
        <g id="Girl_12" transform="translate(46.821 74.125)">
          <path id="_Контур_" data-name="&lt;Контур&gt;" class="cls-14" d="M98.589,112.573c.666-1.125,6.038-1.857,7.789,2.663.666,1.711.566,6.091,1.118,8.847s1.871,4.307,2.343,6.544-.3,5.991-5.679,6.657-9.52-1.225-10.791-2.942a7.352,7.352,0,0,1,0-7.323c1.331-1.957,2.323-3.548,2.29-6.1Z" transform="translate(-77.706 -111.472)"/>
          <path id="_Контур_2" data-name="&lt;Контур&gt;" class="cls-14" d="M102.792,111.655s-3.994-1.158-6.457,1.012a5.991,5.991,0,0,0-1.718,5.952c.326,1.272.979,3,2,3.1S102.792,111.655,102.792,111.655Z" transform="translate(-78.381 -111.346)"/>
          <path id="_Контур_3" data-name="&lt;Контур&gt;" class="cls-15" d="M105.147,128.26s-.26,4.48-.18,4.807,1.757.666,2.223,1.039-2.43,4.933-3.908,5.605-6.051-1.045-6.371-3.329c-.293-2.09,1.331-3.721,1.931-4.287a9.607,9.607,0,0,1,1.258-.033l.133-2.17C102.238,129.259,105.147,128.26,105.147,128.26Z" transform="translate(-79.205 -117)"/>
          <path id="_Контур_4" data-name="&lt;Контур&gt;" class="cls-15" d="M83.121,154.476a23.228,23.228,0,0,1-4.467,4.66c-.473.413-.712.852-1.518,1.764a6.764,6.764,0,0,1-3,2c-1.012.26-1.438.193-1.611,0s-.087-.479.353-.666a5.592,5.592,0,0,0,2-1.058s-.939.439-1.531.666a6.171,6.171,0,0,1-1.664.333c-.553,0-1.138-.666-.7-.839s.845-.206,1.718-.526a5.751,5.751,0,0,0,1.331-.666,10.987,10.987,0,0,1-1.851.373,2.8,2.8,0,0,1-1.538-.173c-.26-.113-.486-.586.1-.739a8.969,8.969,0,0,0,2.224-.519c.666-.306,1.112-.632.959-.666a7.474,7.474,0,0,1-1.225.093c-.686-.053-1.331-.486-1.331-.852s.146-.166.819-.22a14.75,14.75,0,0,1,2.164-.366,6.857,6.857,0,0,0,2.13-.253c.732-.22,2.37-2.184,3.622-3.994a26.223,26.223,0,0,0,3.215-6.5c.752-2.476,1.651-7.117,2.29-8.728a3.286,3.286,0,0,1,2.8-2.383c1.238-.04,1.764,1.584,1.438,2.989C89.212,140.609,86.469,150.075,83.121,154.476Z" transform="translate(-70.346 -119.323)"/>
          <path id="_Контур_5" data-name="&lt;Контур&gt;" class="cls-16" d="M104.249,135.432c1.258.193,2.663.865,2.9,1.551a14.891,14.891,0,0,1-.359,7.476c-1.085,2.883-2.323,8.075-2.949,9.32a14.646,14.646,0,0,1-9.373-1.8s-.26-5.013-.28-6.657c-4.048-3.535-.586-7.889,2.843-11.277a7.705,7.705,0,0,1,1.238,0s-3.062,3.622-.939,5.679C101.885,138.295,102.771,136.244,104.249,135.432Z" transform="translate(-77.694 -118.926)"/>
          <path id="_Контур_6" data-name="&lt;Контур&gt;" class="cls-15" d="M96.623,117.478h0c.453-2.876,2.53-5.046,5.492-4.873a5.718,5.718,0,0,1,5.379,6.045,5.652,5.652,0,0,1-2.51,4.374,5.532,5.532,0,0,1-.459,1.258c-1.052,1.225-3.841,2-4.76,2-.8,0-1.485-.732-2.23-2A9.724,9.724,0,0,1,96.623,117.478Z" transform="translate(-79.042 -111.764)"/>
          <path id="パス_2435" data-name="パス 2435" class="cls-14" d="M103.258,112.618c2.084.406,3.795.992,4.36,3.036.386,1.4.892,4.088.406,5.219l-.293.812-2.523,1.3s-1.178-.979-.806-3.848a2.064,2.064,0,0,0-.359-1.092,3.269,3.269,0,0,1-.346-.865,3.229,3.229,0,0,0-1.631-1.764,5.6,5.6,0,0,0-5.006.233,5.466,5.466,0,0,1,6.2-3.029Z" transform="translate(-79.266 -111.724)"/>
          <path id="パス_2436" data-name="パス 2436" class="cls-17" d="M85.074,216.11c-1.052.852-2.663.26-2.763.34A45.776,45.776,0,0,1,78.45,219.4c-.666.513-1.678,1.2-1.491,2.2.326,1.777,3.169,1.225,4.241.666s1.944-1.445,2.962-2.07c.719-.453,1.431-.666,1.544-1.6A5.482,5.482,0,0,0,85.074,216.11Z" transform="translate(-72.539 -146.367)"/>
          <path id="パス_2437" data-name="パス 2437" class="cls-18" d="M85.711,219.32c-.14.872-.839,1.112-1.558,1.558-1.032.666-1.937,1.564-3.009,2.11s-3.462,1-4.154-.273c.379,1.711,3.169,1.178,4.227.666s1.944-1.445,2.962-2.07c.719-.453,1.431-.666,1.544-1.6a1.425,1.425,0,0,0-.013-.393Z" transform="translate(-72.557 -147.44)"/>
          <path id="パス_2438" data-name="パス 2438" class="cls-17" d="M77.74,211.78c-.965.786-2.423.346-2.49.419a38.447,38.447,0,0,1-3.528,2.663c-.6.473-1.538,1.105-1.371,2,.306,1.624,2.909,1.125,3.888.626s1.784-1.331,2.709-1.9c.666-.413,1.331-.626,1.418-1.458A5.607,5.607,0,0,0,77.74,211.78Z" transform="translate(-70.331 -144.919)"/>
          <path id="パス_2439" data-name="パス 2439" class="cls-18" d="M78.375,214.86c-.133.8-.772,1.025-1.431,1.431-.945.586-1.777,1.431-2.756,1.931s-3.169.912-3.808-.246c.346,1.564,2.9,1.072,3.874.579s1.784-1.331,2.709-1.9c.666-.413,1.331-.626,1.418-1.458a1.491,1.491,0,0,0-.007-.34Z" transform="translate(-70.347 -145.949)"/>
          <path id="パス_2440" data-name="パス 2440" class="cls-15" d="M93.816,164.752a15.618,15.618,0,0,1-8.388-1.212c.047.885.093,1.678.093,1.678-3.415,2.417-10.265,6.477-10.711,9.28.446,8.861,1.791,21.509,2.177,21.689,1.072.513,1.817.433,2.323-.08a61.091,61.091,0,0,0,1.524-18.514s11.983-5.286,12.729-8.182a9.107,9.107,0,0,0,.326-3.6C93.883,165.457,93.856,165.1,93.816,164.752Z" transform="translate(-71.828 -128.794)"/>
          <path id="パス_2441" data-name="パス 2441" class="cls-15" d="M100.4,163.63a12.767,12.767,0,0,1-7.216.965c0,1.185.173,3.415.173,3.415-3.415,2.41-10.265,6.477-10.718,9.28.453,8.854,1.278,21.683,1.671,21.842a2.856,2.856,0,0,0,2.829-.333,60,60,0,0,0,1.531-18.414c0-.206,10.239-5.246,11.537-6.584s1.551-3.329,1.511-5.2a12.782,12.782,0,0,0-1.318-4.973Z" transform="translate(-74.446 -128.824)"/>
          <path id="パス_2442" data-name="パス 2442" class="cls-19" d="M99.36,164.394s3.781,6.7-2.523,10.152c-6.657,3.641-10.718,4.494-10.718,4.494l-1,.233a25.85,25.85,0,0,1,0,6.97s-4.747,1.658-10.8-3.675l-2-6.464-.233-1.718a3.582,3.582,0,0,1,1.005-3.255c1.458-1.331,6.065-4.66,8.927-6.624s5.119-3.741,5.119-3.741l.506-.466s3.4,2.7,9.606,1.8A9.985,9.985,0,0,1,99.36,164.394Z" transform="translate(-70.894 -127.71)"/>
          <path id="_Контур_7" data-name="&lt;Контур&gt;" class="cls-15" d="M107.081,166.55a17.3,17.3,0,0,1,1.831-1.445,7.562,7.562,0,0,0,1.844-1.331c.579-.579,1.438-3.016,1.884-5.392a23.428,23.428,0,0,0-.133-7.989,55.629,55.629,0,0,0-3.169-9.207c-.845-1.777-.366-2.863.4-3.648.905-.925,1.844-.905,2.916,1.578a50.794,50.794,0,0,1,3.329,10.838,23.9,23.9,0,0,1-.107,8.155,29.957,29.957,0,0,1-2.177,6.844c-.273.666-.32,1.185-.706,2.47a8.335,8.335,0,0,1-1.957,3.435c-.819.766-1.238.912-1.465.812s-.266-.419.067-.812a6.937,6.937,0,0,0,1.378-2,17.836,17.836,0,0,1-1.145,1.385,6.958,6.958,0,0,1-1.385,1.158c-.5.3-1.291-.053-.965-.459s.666-.626,1.331-1.371a7.016,7.016,0,0,0,.919-1.3,11.985,11.985,0,0,1-1.538,1.292,2.849,2.849,0,0,1-1.471.612c-.28,0-.666-.326-.193-.772a10.272,10.272,0,0,0,1.824-1.611c.506-.666.766-1.178.606-1.165s-.433.406-1.085.706-1.4.2-1.531-.16S106.489,166.949,107.081,166.55Z" transform="translate(-82.37 -119.914)"/>
          <path id="パス_2443" data-name="パス 2443" class="cls-20" d="M115.319,142.245s-2.3,2.037-4.853,1.624l-.992-4.274s-.666-2.243,1.252-3.1S114.487,137.878,115.319,142.245Z" transform="translate(-83.378 -119.695)"/>
          <path id="パス_2444" data-name="パス 2444" class="cls-20" d="M96.8,133.983s-2.483-.752-5.126,4.753l.992.592A41.4,41.4,0,0,1,96.8,133.983Z" transform="translate(-77.464 -118.901)"/>
          <g id="_Группа_" data-name="&lt;Группа&gt;" transform="translate(0.37 29.154)">
            <g id="_Группа_2" data-name="&lt;Группа&gt;">
              <path id="_Контур_8" data-name="&lt;Контур&gt;" class="cls-16" d="M74.13,168.06l8.341-4.813a.473.473,0,0,1,.479,0L97.6,171.7l-8.581,4.96Z" transform="translate(-71.971 -157.828)"/>
              <path id="パス_2445" data-name="パス 2445" class="cls-14" d="M96.363,180.539l.666.373c.053,0,.047.08,0,.113l-.606.353a.226.226,0,0,1-.206,0l-.666-.366c-.053-.033-.047-.08,0-.12l.612-.346A.213.213,0,0,1,96.363,180.539Z" transform="translate(-79.119 -163.623)"/>
              <path id="パス_2446" data-name="パス 2446" class="cls-14" d="M95.013,179.758l.666.366a.072.072,0,0,1,0,.12l-.606.353a.246.246,0,0,1-.206,0l-.666-.366a.067.067,0,0,1,0-.12l.606-.353A.226.226,0,0,1,95.013,179.758Z" transform="translate(-78.667 -163.361)"/>
              <path id="パス_2447" data-name="パス 2447" class="cls-14" d="M93.635,178.985l.666.366c.053.033.047.08,0,.12l-.606.346a.226.226,0,0,1-.206,0l-.666-.373c-.047,0-.047-.08,0-.113l.606-.353A.213.213,0,0,1,93.635,178.985Z" transform="translate(-78.207 -163.101)"/>
              <path id="パス_2448" data-name="パス 2448" class="cls-14" d="M92.293,178.189l.666.373c.053,0,.047.08,0,.113l-.606.353a.226.226,0,0,1-.206,0l-.666-.366c-.053,0-.047-.08,0-.12l.612-.346A.213.213,0,0,1,92.293,178.189Z" transform="translate(-77.758 -162.838)"/>
              <path id="パス_2449" data-name="パス 2449" class="cls-14" d="M90.943,177.408l.666.366a.072.072,0,0,1,0,.12l-.606.353a.246.246,0,0,1-.206,0l-.666-.366c-.053,0-.047-.087,0-.12l.606-.353A.226.226,0,0,1,90.943,177.408Z" transform="translate(-77.307 -162.575)"/>
              <path id="パス_2450" data-name="パス 2450" class="cls-14" d="M89.573,176.626l.666.366c.053,0,.047.08,0,.12l-.612.346a.213.213,0,0,1-.2,0l-.666-.373c-.053,0-.047-.08,0-.113l.606-.353A.226.226,0,0,1,89.573,176.626Z" transform="translate(-76.849 -162.313)"/>
              <path id="パス_2451" data-name="パス 2451" class="cls-14" d="M88.223,175.839l.666.373c.053,0,.047.08,0,.113l-.606.353a.226.226,0,0,1-.206,0l-.666-.366c-.053,0-.047-.08,0-.12l.612-.346A.213.213,0,0,1,88.223,175.839Z" transform="translate(-76.398 -162.052)"/>
              <path id="パス_2452" data-name="パス 2452" class="cls-14" d="M86.876,175.058l.666.366c.053,0,.047.087,0,.12l-.606.353a.246.246,0,0,1-.206,0l-.666-.366c-.047,0-.04-.087,0-.12l.606-.353A.226.226,0,0,1,86.876,175.058Z" transform="translate(-75.949 -161.79)"/>
              <path id="パス_2453" data-name="パス 2453" class="cls-14" d="M85.513,174.276l.666.366c.053,0,.047.08,0,.12l-.612.346a.213.213,0,0,1-.2,0l-.666-.373c-.053,0-.047-.08,0-.113l.606-.353A.226.226,0,0,1,85.513,174.276Z" transform="translate(-75.492 -161.527)"/>
              <path id="パス_2454" data-name="パス 2454" class="cls-14" d="M84.153,173.489l.666.373c.053,0,.047.08,0,.113l-.612.353a.213.213,0,0,1-.2,0l-.666-.366c-.053-.033-.047-.08,0-.12l.612-.346A.213.213,0,0,1,84.153,173.489Z" transform="translate(-75.037 -161.267)"/>
              <path id="パス_2455" data-name="パス 2455" class="cls-14" d="M82.806,172.708l.666.366c.053,0,.047.087,0,.12l-.606.353a.246.246,0,0,1-.206,0l-.666-.366a.072.072,0,0,1,0-.12l.606-.353A.226.226,0,0,1,82.806,172.708Z" transform="translate(-74.588 -161.004)"/>
              <path id="パス_2456" data-name="パス 2456" class="cls-14" d="M81.443,171.926l.666.366c.053,0,.047.08,0,.12l-.612.346a.213.213,0,0,1-.2,0l-.666-.373c-.053,0-.047-.08,0-.113l.606-.353A.226.226,0,0,1,81.443,171.926Z" transform="translate(-74.131 -160.742)"/>
              <path id="パス_2457" data-name="パス 2457" class="cls-14" d="M80.083,171.139l.666.373c.053,0,.047.08,0,.113l-.612.353a.213.213,0,0,1-.2,0l-.666-.366c-.053-.033-.047-.08,0-.12l.612-.346A.213.213,0,0,1,80.083,171.139Z" transform="translate(-73.677 -160.481)"/>
              <path id="パス_2458" data-name="パス 2458" class="cls-14" d="M78.073,169.989l1.072.619a.067.067,0,0,1,0,.12l-.606.353a.246.246,0,0,1-.206,0l-1.072-.619c-.053-.033-.047-.08,0-.12l.612-.353A.233.233,0,0,1,78.073,169.989Z" transform="translate(-73.005 -160.096)"/>
              <path id="パス_2459" data-name="パス 2459" class="cls-14" d="M95.676,178.619l.666.373c.053,0,.047.08,0,.113l-.606.353a.226.226,0,0,1-.206,0l-.666-.366c-.047,0-.04-.087,0-.12l.606-.353a.246.246,0,0,1,.206,0Z" transform="translate(-78.891 -162.981)"/>
              <path id="パス_2460" data-name="パス 2460" class="cls-14" d="M94.313,177.836l.666.366c.047,0,.04.08,0,.12l-.606.346a.226.226,0,0,1-.206,0L93.5,178.3c-.053,0-.047-.08,0-.113l.606-.353A.226.226,0,0,1,94.313,177.836Z" transform="translate(-78.433 -162.717)"/>
              <path id="パス_2461" data-name="パス 2461" class="cls-14" d="M92.953,177.049l.666.373c.047,0,.04.08,0,.113l-.606.353a.226.226,0,0,1-.206,0l-.666-.366c-.053-.033-.047-.08,0-.12l.606-.353a.246.246,0,0,1,.206,0Z" transform="translate(-77.979 -162.456)"/>
              <path id="パス_2462" data-name="パス 2462" class="cls-14" d="M91.573,176.268l.666.366c.053,0,.047.08,0,.12l-.612.353a.233.233,0,0,1-.2,0l-.666-.373c-.053,0-.047-.08,0-.113l.606-.353A.227.227,0,0,1,91.573,176.268Z" transform="translate(-77.518 -162.194)"/>
              <path id="パス_2463" data-name="パス 2463" class="cls-14" d="M90.243,175.488l.666.366c.053,0,.047.087,0,.12l-.612.353a.233.233,0,0,1-.2,0l-.666-.366a.067.067,0,0,1,0-.12l.612-.353A.213.213,0,0,1,90.243,175.488Z" transform="translate(-77.073 -161.933)"/>
              <path id="パス_2464" data-name="パス 2464" class="cls-14" d="M88.883,174.7l.666.373c.053,0,.047.08,0,.113l-.612.353a.213.213,0,0,1-.2,0l-.666-.366c-.053,0-.047-.08,0-.113l.612-.353A.233.233,0,0,1,88.883,174.7Z" transform="translate(-76.618 -161.672)"/>
              <path id="パス_2465" data-name="パス 2465" class="cls-14" d="M87.573,173.918l.666.366a.067.067,0,0,1,0,.12l-.612.353a.213.213,0,0,1-.2,0l-.666-.366a.067.067,0,0,1,0-.12l.612-.353a.213.213,0,0,1,.2,0Z" transform="translate(-76.18 -161.409)"/>
              <path id="パス_2466" data-name="パス 2466" class="cls-14" d="M86.163,173.136l.666.366c.053,0,.047.08,0,.113l-.606.353a.253.253,0,0,1-.206,0l-.666-.373c-.053,0-.047-.08,0-.113l.612-.353a.213.213,0,0,1,.2.007Z" transform="translate(-75.709 -161.146)"/>
              <path id="パス_2467" data-name="パス 2467" class="cls-14" d="M84.8,172.349l.666.366a.067.067,0,0,1,0,.12l-.606.353a.226.226,0,0,1-.206,0l-.666-.366a.067.067,0,0,1,0-.12l.612-.353A.233.233,0,0,1,84.8,172.349Z" transform="translate(-75.254 -160.885)"/>
              <path id="パス_2468" data-name="パス 2468" class="cls-14" d="M83.456,171.566l.666.366c.053,0,.047.08,0,.12l-.606.346a.226.226,0,0,1-.206,0l-.666-.373c-.047,0-.04-.08,0-.113l.606-.353a.226.226,0,0,1,.206.007Z" transform="translate(-74.806 -160.621)"/>
              <path id="パス_2469" data-name="パス 2469" class="cls-14" d="M82.1,170.779l.666.366c.053,0,.047.087,0,.12l-.606.353a.226.226,0,0,1-.206,0l-.666-.366c-.047,0-.04-.087,0-.12l.606-.353A.246.246,0,0,1,82.1,170.779Z" transform="translate(-74.351 -160.36)"/>
              <path id="パス_2470" data-name="パス 2470" class="cls-14" d="M80.733,169.986l.666.366c.047,0,.04.08,0,.12l-.606.346a.226.226,0,0,1-.206,0l-.666-.373c-.053,0-.047-.08,0-.113l.606-.353a.226.226,0,0,1,.206.007Z" transform="translate(-73.894 -160.093)"/>
              <path id="パス_2471" data-name="パス 2471" class="cls-14" d="M97.033,179.407l1.072.619c.053,0,.047.08,0,.113l-.612.353a.213.213,0,0,1-.2,0l-1.078-.619c-.047,0-.04-.08,0-.113l.606-.353a.226.226,0,0,1,.213,0Z" transform="translate(-79.342 -163.243)"/>
              <path id="パス_2472" data-name="パス 2472" class="cls-14" d="M78.561,169.455l.666.373a.206.206,0,0,0,.186,0l.666-.366c.053-.033.053-.08,0-.113h-.053a.053.053,0,0,1,0-.1l.666-.393c.053-.033.053-.08,0-.113l-.406-.233a.246.246,0,0,0-.193,0l-.666.366-.133.08-.093.053-.1.053-.546.32A.053.053,0,0,0,78.561,169.455Z" transform="translate(-73.446 -159.603)"/>
              <path id="パス_2473" data-name="パス 2473" class="cls-14" d="M101.623,177.5l.666.373c.053,0,.047.08,0,.113l-.612.353a.213.213,0,0,1-.2,0l-.666-.366c-.053,0-.047-.08,0-.12l.606-.346a.226.226,0,0,1,.206-.007Z" transform="translate(-80.877 -162.607)"/>
              <path id="パス_2474" data-name="パス 2474" class="cls-14" d="M100.276,176.719l.666.366a.067.067,0,0,1,0,.12l-.606.353a.226.226,0,0,1-.206,0l-.666-.366c-.047,0-.04-.087,0-.12l.606-.353A.246.246,0,0,1,100.276,176.719Z" transform="translate(-80.428 -162.346)"/>
              <path id="パス_2475" data-name="パス 2475" class="cls-14" d="M98.913,175.985l.666.366a.067.067,0,0,1,0,.12l-.612.353a.213.213,0,0,1-.2,0l-.666-.366c-.053,0-.047-.087,0-.12l.586-.353A.233.233,0,0,1,98.913,175.985Z" transform="translate(-79.971 -162.098)"/>
              <path id="パス_2476" data-name="パス 2476" class="cls-14" d="M87.393,169.288l.666.366a.067.067,0,0,1,0,.12l-.612.353a.233.233,0,0,1-.2,0l-.666-.366a.067.067,0,0,1,0-.12l.612-.353a.213.213,0,0,1,.2,0Z" transform="translate(-76.12 -159.861)"/>
              <path id="パス_2477" data-name="パス 2477" class="cls-14" d="M86.047,168.507l.666.366c.047.033.047.08,0,.12l-.606.346a.213.213,0,0,1-.2,0l-.666-.373c-.053,0-.047-.08,0-.113l.606-.353A.226.226,0,0,1,86.047,168.507Z" transform="translate(-75.672 -159.599)"/>
              <path id="パス_2478" data-name="パス 2478" class="cls-14" d="M84.679,167.721l.632.366c.053,0,.047.08,0,.12l-.606.346a.226.226,0,0,1-.206,0l-.666-.373c-.047,0-.04-.08,0-.113l.606-.353A.226.226,0,0,1,84.679,167.721Z" transform="translate(-75.203 -159.333)"/>
              <path id="パス_2479" data-name="パス 2479" class="cls-14" d="M83.333,166.986l.666.366c.053,0,.047.08,0,.113l-.612.353a.233.233,0,0,1-.2,0l-.666-.373c-.053,0-.047-.08,0-.113l.612-.353A.213.213,0,0,1,83.333,166.986Z" transform="translate(-74.763 -159.09)"/>
              <path id="パス_2480" data-name="パス 2480" class="cls-14" d="M97.213,174.988l.872.5a.067.067,0,0,1,0,.12l-.612.353a.233.233,0,0,1-.2,0l-.872-.5a.067.067,0,0,1,0-.12l.612-.353A.213.213,0,0,1,97.213,174.988Z" transform="translate(-79.403 -161.766)"/>
              <path id="パス_2481" data-name="パス 2481" class="cls-14" d="M88.743,170.068l.872.5c.053,0,.047.087,0,.12l-.612.353a.213.213,0,0,1-.2,0l-.872-.5a.067.067,0,0,1,0-.12l.612-.353a.213.213,0,0,1,.2,0Z" transform="translate(-76.572 -160.122)"/>
              <path id="パス_2482" data-name="パス 2482" class="cls-14" d="M90.456,171.047,94.7,173.5c.053,0,.047.08,0,.12l-.606.346a.213.213,0,0,1-.2,0l-4.247-2.45a.072.072,0,0,1,0-.12l.606-.353a.246.246,0,0,1,.206.007Z" transform="translate(-77.146 -160.449)"/>
              <path id="パス_2483" data-name="パス 2483" class="cls-14" d="M96.573,177.648l.666.366c.053,0,.047.087,0,.12l-.612.353a.233.233,0,0,1-.2,0l-.666-.366c-.053,0-.047-.087,0-.12l.612-.353A.213.213,0,0,1,96.573,177.648Z" transform="translate(-79.189 -162.656)"/>
              <path id="パス_2484" data-name="パス 2484" class="cls-14" d="M95.263,176.866l.666.366c.047,0,.04.08,0,.12l-.606.346a.226.226,0,0,1-.206,0l-.666-.373c-.053,0-.047-.08,0-.113l.606-.353a.226.226,0,0,1,.206.007Z" transform="translate(-78.751 -162.393)"/>
              <path id="パス_2485" data-name="パス 2485" class="cls-14" d="M93.9,176.079l.666.373c.053,0,.047.08,0,.113l-.612.353a.213.213,0,0,1-.2,0l-.666-.366c-.053,0-.047-.08,0-.113l.612-.353A.213.213,0,0,1,93.9,176.079Z" transform="translate(-78.296 -162.132)"/>
              <path id="パス_2486" data-name="パス 2486" class="cls-14" d="M92.576,175.3l.666.373c.053,0,.047.08,0,.113l-.606.353a.226.226,0,0,1-.206,0l-.666-.366a.072.072,0,0,1,0-.12l.606-.353A.246.246,0,0,1,92.576,175.3Z" transform="translate(-77.854 -161.871)"/>
              <path id="パス_2487" data-name="パス 2487" class="cls-14" d="M91.193,174.518l.666.366c.053,0,.047.087,0,.12l-.612.353a.233.233,0,0,1-.2,0l-.666-.366a.067.067,0,0,1,0-.12l.612-.353a.213.213,0,0,1,.2,0Z" transform="translate(-77.391 -161.609)"/>
              <path id="パス_2488" data-name="パス 2488" class="cls-14" d="M89.846,173.736l.666.366c.053,0,.047.08,0,.12l-.606.346a.226.226,0,0,1-.206,0l-.666-.373c-.047,0-.04-.08,0-.113l.606-.353A.226.226,0,0,1,89.846,173.736Z" transform="translate(-76.942 -161.347)"/>
              <path id="パス_2489" data-name="パス 2489" class="cls-14" d="M88.483,172.99l.666.373c.053,0,.047.08,0,.113l-.612.353a.213.213,0,0,1-.2,0l-.666-.366c-.053,0-.047-.08,0-.113l.612-.353A.233.233,0,0,1,88.483,172.99Z" transform="translate(-76.485 -161.101)"/>
              <path id="パス_2490" data-name="パス 2490" class="cls-14" d="M87.136,172.169l.666.373c.053,0,.047.08,0,.113l-.606.353a.226.226,0,0,1-.206,0l-.666-.366a.072.072,0,0,1,0-.12l.606-.353a.246.246,0,0,1,.206,0Z" transform="translate(-76.036 -160.825)"/>
              <path id="パス_2491" data-name="パス 2491" class="cls-14" d="M85.773,171.388l.666.366a.067.067,0,0,1,0,.12l-.612.353a.233.233,0,0,1-.2,0l-.666-.366a.067.067,0,0,1,0-.12l.612-.353A.213.213,0,0,1,85.773,171.388Z" transform="translate(-75.579 -160.563)"/>
              <path id="パス_2492" data-name="パス 2492" class="cls-14" d="M84.415,170.6l.666.366c.053.033.047.08,0,.12l-.606.346a.226.226,0,0,1-.206,0l-.666-.373c-.047,0-.047-.08,0-.113l.606-.353A.213.213,0,0,1,84.415,170.6Z" transform="translate(-75.125 -160.3)"/>
              <path id="パス_2493" data-name="パス 2493" class="cls-14" d="M83.063,169.821l.666.373c.053,0,.047.08,0,.113l-.612.353a.213.213,0,0,1-.2,0l-.666-.366c-.053,0-.047-.08,0-.113l.606-.353A.253.253,0,0,1,83.063,169.821Z" transform="translate(-74.673 -160.041)"/>
              <path id="パス_2494" data-name="パス 2494" class="cls-14" d="M81.7,169.039l.666.373c.053,0,.047.08,0,.113l-.606.353a.226.226,0,0,1-.206,0l-.666-.366c-.053-.033-.047-.08,0-.12l.612-.353A.233.233,0,0,1,81.7,169.039Z" transform="translate(-74.218 -159.779)"/>
              <path id="パス_2495" data-name="パス 2495" class="cls-14" d="M97.973,178.429l1.331.766c.053,0,.047.08,0,.113l-.612.353a.213.213,0,0,1-.2,0l-1.331-.759c-.053,0-.047-.087,0-.12l.606-.353a.246.246,0,0,1,.206,0Z" transform="translate(-79.657 -162.917)"/>
              <path id="パス_2496" data-name="パス 2496" class="cls-14" d="M98.573,177.278l.666.366c.053,0,.047.087,0,.12l-.612.353a.233.233,0,0,1-.2,0l-.666-.366c-.053,0-.047-.087,0-.12l.606-.353A.226.226,0,0,1,98.573,177.278Z" transform="translate(-79.858 -162.532)"/>
              <path id="パス_2497" data-name="パス 2497" class="cls-14" d="M97.246,176.495l.666.366c.053,0,.047.08,0,.12l-.606.346a.226.226,0,0,1-.206,0l-.666-.373c-.047,0-.04-.08,0-.113l.606-.353A.213.213,0,0,1,97.246,176.495Z" transform="translate(-79.415 -162.268)"/>
              <path id="パス_2498" data-name="パス 2498" class="cls-14" d="M95.893,175.709l.666.373c.053,0,.047.08,0,.113l-.612.353a.213.213,0,0,1-.2,0l-.666-.366c-.053,0-.047-.08,0-.12l.606-.346a.226.226,0,0,1,.206-.007Z" transform="translate(-78.962 -162.009)"/>
              <path id="パス_2499" data-name="パス 2499" class="cls-14" d="M94.575,174.928l.666.366c.053,0,.047.087,0,.12l-.606.353a.226.226,0,0,1-.206,0l-.666-.366c-.047,0-.047-.087,0-.12l.606-.353A.233.233,0,0,1,94.575,174.928Z" transform="translate(-78.522 -161.747)"/>
              <path id="パス_2500" data-name="パス 2500" class="cls-14" d="M93.183,174.148l.666.366c.053,0,.047.087,0,.12l-.612.353a.233.233,0,0,1-.2,0l-.666-.366c-.053,0-.047-.087,0-.12l.606-.353a.226.226,0,0,1,.206,0Z" transform="translate(-78.056 -161.486)"/>
              <path id="パス_2501" data-name="パス 2501" class="cls-14" d="M91.825,173.365l.666.366c.053,0,.047.08,0,.12l-.606.346a.226.226,0,0,1-.206,0l-.666-.373c-.047,0-.047-.08,0-.113l.606-.353a.213.213,0,0,1,.206.007Z" transform="translate(-77.602 -161.222)"/>
              <path id="パス_2502" data-name="パス 2502" class="cls-14" d="M90.473,172.581l.666.373c.053,0,.047.08,0,.113l-.612.353a.213.213,0,0,1-.2,0l-.666-.366c-.053,0-.047-.08,0-.113l.606-.353A.253.253,0,0,1,90.473,172.581Z" transform="translate(-77.15 -160.964)"/>
              <path id="パス_2503" data-name="パス 2503" class="cls-14" d="M89.115,171.8l.666.373c.053,0,.047.08,0,.113l-.606.353a.226.226,0,0,1-.206,0l-.666-.366a.069.069,0,0,1,0-.12l.606-.353A.233.233,0,0,1,89.115,171.8Z" transform="translate(-76.697 -160.7)"/>
              <path id="パス_2504" data-name="パス 2504" class="cls-14" d="M87.763,170.988l.666.366c.053,0,.047.087,0,.12l-.612.353a.213.213,0,0,1-.2,0l-.666-.366a.067.067,0,0,1,0-.12l.606-.353A.226.226,0,0,1,87.763,170.988Z" transform="translate(-76.244 -160.429)"/>
              <path id="パス_2505" data-name="パス 2505" class="cls-14" d="M86.4,170.237l.666.366c.053,0,.047.08,0,.12l-.606.353a.246.246,0,0,1-.206,0l-.666-.373c-.047,0-.047-.08,0-.113l.606-.353a.213.213,0,0,1,.206,0Z" transform="translate(-75.791 -160.178)"/>
              <path id="パス_2506" data-name="パス 2506" class="cls-14" d="M85.053,169.456l.666.366c.053,0,.047.08,0,.113l-.612.353a.239.239,0,0,1-.2,0l-.666-.373c-.053,0-.047-.08,0-.113l.606-.353a.226.226,0,0,1,.206.007Z" transform="translate(-75.338 -159.916)"/>
              <path id="パス_2507" data-name="パス 2507" class="cls-14" d="M82.023,167.7l1.751,1.019c.053,0,.047.08,0,.113l-.606.353a.226.226,0,0,1-.206,0l-1.751-1.012c-.053,0-.047-.08,0-.113l.606-.353a.253.253,0,0,1,.206-.007Z" transform="translate(-74.325 -159.332)"/>
              <path id="パス_2508" data-name="パス 2508" class="cls-14" d="M99.963,178.058l.865.506c.053,0,.047.08,0,.113l-.606.353a.226.226,0,0,1-.206,0l-.872-.5c-.047,0-.04-.087,0-.12l.606-.353A.246.246,0,0,1,99.963,178.058Z" transform="translate(-80.321 -162.793)"/>
              <path id="パス_2509" data-name="パス 2509" class="cls-14" d="M76.86,170.767l12.815,7.4c.047,0,.04.08,0,.12l-.3.173a.226.226,0,0,1-.206,0l-12.828-7.39c-.053,0-.047-.08,0-.12l.306-.173a.213.213,0,0,1,.213-.007Z" transform="translate(-72.697 -160.355)"/>
              <path id="_Контур_9" data-name="&lt;Контур&gt;" class="cls-21" d="M96.748,170.35l-.087.047-2.2,1.272L90.537,169.4l-.087-.047,2.29-1.318Z" transform="translate(-77.426 -159.452)"/>
              <path id="_Контур_10" data-name="&lt;Контур&gt;" class="cls-22" d="M96.7,170.443l-2.2,1.272-3.921-2.263,2.2-1.272Z" transform="translate(-77.47 -159.499)"/>
              <path id="_Контур_11" data-name="&lt;Контур&gt;" class="cls-22" d="M97.583,174.161v.2a.8.8,0,0,1-.4.666L89.4,179.521a.8.8,0,0,1-.8,0L74.529,171.4a.819.819,0,0,1-.4-.7v-.2L89,179.088Z" transform="translate(-71.971 -160.275)"/>
              <path id="_Контур_12" data-name="&lt;Контур&gt;" class="cls-22" d="M89,179.1v.539a.766.766,0,0,1-.4-.107l-14.073-8.122a.819.819,0,0,1-.4-.7v-.2Z" transform="translate(-71.971 -160.278)"/>
              <path id="_Контур_13" data-name="&lt;Контур&gt;" class="cls-16" d="M87.692,174.16a.952.952,0,0,1-.825-.06l-13.98-8.089a.939.939,0,0,1-.459-.666L70.889,156.2a1.189,1.189,0,0,1,0-.153.959.959,0,0,1,.286-.666l14.513,8.4a.666.666,0,0,1,.346.493Z" transform="translate(-70.886 -155.22)"/>
              <path id="_Контур_14" data-name="&lt;Контур&gt;" class="cls-22" d="M88.043,173.967l-.1.053a.741.741,0,0,1-.126.06l-1.658-9.893a.666.666,0,0,0-.346-.493L71.26,155.286a.706.706,0,0,1,.193-.146l14.586,8.421a.706.706,0,0,1,.34.493Z" transform="translate(-71.011 -155.14)"/>
            </g>
          </g>
        </g>
        <g id="Men_11" transform="translate(236.75 51.48)">
          <path id="_Контур_15" data-name="&lt;Контур&gt;" class="cls-15" d="M382.7,117.342a29.187,29.187,0,0,0,4.167,5.679c.453.519,3.921-.806,3.2-1.178s-3-3.535-4.134-5.645a71.377,71.377,0,0,1-2.423-7.7c-.719-2.583-1.331-6.371-1.851-8.155a3.482,3.482,0,0,0-2.663-2.7c-1.245-.286-2.05.053-1.824,1.564C377.577,101.844,379.647,112.143,382.7,117.342Z" transform="translate(-362.818 -84.089)"/>
          <path id="パス_2510" data-name="パス 2510" class="cls-17" d="M382.174,187.84c1.072.872,2.663.073,2.736.153a48.037,48.037,0,0,0,3.994,3.329c.666.526,1.718,1.232,1.525,2.243-.34,1.817-3.235,1.258-4.327.706s-2-1.471-3.022-2.117c-.739-.459-1.465-.7-1.584-1.631A5.982,5.982,0,0,1,382.174,187.84Z" transform="translate(-364.273 -114.271)"/>
          <path id="パス_2511" data-name="パス 2511" class="cls-18" d="M381.479,191.27c.14.892.859,1.138,1.591,1.591,1.052.666,2,1.6,3.069,2.15s3.528,1.019,4.241-.273c-.386,1.744-3.235,1.2-4.314.666a36.849,36.849,0,0,1-3.022-2.117c-.739-.459-1.465-.7-1.584-1.631A2,2,0,0,1,381.479,191.27Z" transform="translate(-364.263 -115.418)"/>
          <path id="パス_2512" data-name="パス 2512" class="cls-17" d="M398.47,178.408c1.072.872,2.956-.08,3.036,0a41.264,41.264,0,0,0,3.542,3.2c.666.526,1.718,1.232,1.525,2.243-.333,1.817-3.235,1.258-4.327.706s-2-1.471-3.022-2.117c-.739-.459-1.465-.7-1.584-1.631A4.922,4.922,0,0,1,398.47,178.408Z" transform="translate(-369.671 -111.117)"/>
          <path id="パス_2513" data-name="パス 2513" class="cls-18" d="M397.682,181.64c.146.892.859,1.138,1.591,1.591,1.052.666,2,1.6,3.076,2.15s3.528,1.025,4.241-.273c-.386,1.751-3.235,1.2-4.321.666a34.6,34.6,0,0,1-3.016-2.117c-.739-.459-1.465-.666-1.584-1.624A2.663,2.663,0,0,1,397.682,181.64Z" transform="translate(-369.682 -112.199)"/>
          <path id="_Контур_16" data-name="&lt;Контур&gt;" class="cls-19" d="M360.808,134.823c-1.185,7.436,2.117,10.219,6.418,11.8,3.082,1.138,7.5,2.889,7.5,2.889s-.06,1.631-.1,5.326c0,3.229.4,15.005.4,15.005a3.651,3.651,0,0,0,3.289,0s1.731-9.027,2.1-13.095c.5-5.525,1.331-9.134,1.065-10.325-.246-1.045-6.278-3.994-8.195-5.6l12.649,4.234a22.288,22.288,0,0,0-.366,4.154c.113,4.38.36,13.867.36,13.867a2.707,2.707,0,0,0,3.209,0s3.182-18.767,2.8-21.256c-.366-2.357-11.5-7.176-13.467-8.834a3.136,3.136,0,0,0-2.477-.666Z" transform="translate(-357.279 -95.699)"/>
          <g id="_Группа_3" data-name="&lt;Группа&gt;" transform="translate(9.959 31.795)">
            <g id="_Группа_4" data-name="&lt;Группа&gt;">
              <path id="_Контур_17" data-name="&lt;Контур&gt;" class="cls-16" d="M394.476,138.257l-8.495-4.9a.486.486,0,0,0-.486,0l-14.906,8.6L379.331,147Z" transform="translate(-370.59 -127.832)"/>
              <path id="パス_2514" data-name="パス 2514" class="cls-14" d="M382.777,151.168l-.666.373c-.053,0-.047.087,0,.12l.612.359a.226.226,0,0,0,.206,0l.666-.373c.047,0,.04-.087,0-.12l-.619-.359A.213.213,0,0,0,382.777,151.168Z" transform="translate(-374.429 -133.799)"/>
              <path id="パス_2515" data-name="パス 2515" class="cls-14" d="M384.147,150.378l-.666.373c-.053,0-.047.08,0,.12l.619.353a.226.226,0,0,0,.206,0l.666-.373c.053,0,.047-.08,0-.12l-.619-.353a.226.226,0,0,0-.206,0Z" transform="translate(-374.887 -133.535)"/>
              <path id="パス_2516" data-name="パス 2516" class="cls-14" d="M385.537,149.569l-.666.373a.067.067,0,0,0,0,.12l.619.359a.226.226,0,0,0,.206,0l.666-.373a.067.067,0,0,0,0-.12l-.619-.359A.246.246,0,0,0,385.537,149.569Z" transform="translate(-375.351 -133.265)"/>
              <path id="パス_2517" data-name="パス 2517" class="cls-14" d="M386.907,148.788l-.666.373c-.053,0-.047.08,0,.12l.612.353a.226.226,0,0,0,.206,0l.666-.373c.053,0,.047-.08,0-.12l-.612-.353a.226.226,0,0,0-.206,0Z" transform="translate(-375.809 -133.003)"/>
              <path id="パス_2518" data-name="パス 2518" class="cls-14" d="M388.277,147.988l-.666.373a.067.067,0,0,0,0,.12l.619.359a.226.226,0,0,0,.206,0l.666-.373c.053,0,.047-.087,0-.12l-.619-.359a.226.226,0,0,0-.206,0Z" transform="translate(-376.267 -132.736)"/>
              <path id="パス_2519" data-name="パス 2519" class="cls-14" d="M389.647,147.2l-.666.373c-.053,0-.047.08,0,.12l.619.353a.226.226,0,0,0,.206,0l.666-.373c.053,0,.047-.08,0-.12l-.619-.353a.226.226,0,0,0-.206,0Z" transform="translate(-376.725 -132.472)"/>
              <path id="パス_2520" data-name="パス 2520" class="cls-14" d="M391.037,146.4l-.666.373a.067.067,0,0,0,0,.12l.612.359a.226.226,0,0,0,.206,0l.666-.373c.053,0,.047-.087,0-.12l-.612-.359a.246.246,0,0,0-.206,0Z" transform="translate(-377.19 -132.205)"/>
              <path id="パス_2521" data-name="パス 2521" class="cls-14" d="M392.407,145.608l-.666.373c-.053,0-.047.08,0,.12l.619.353a.226.226,0,0,0,.206,0l.666-.373c.053,0,.047-.08,0-.12l-.619-.353a.226.226,0,0,0-.206,0Z" transform="translate(-377.648 -131.94)"/>
              <path id="パス_2522" data-name="パス 2522" class="cls-14" d="M393.787,144.809l-.666.373a.067.067,0,0,0,0,.12l.619.359a.226.226,0,0,0,.206,0l.666-.373a.067.067,0,0,0,0-.12l-.619-.359A.246.246,0,0,0,393.787,144.809Z" transform="translate(-378.109 -131.674)"/>
              <path id="パス_2523" data-name="パス 2523" class="cls-14" d="M395.167,143.986l-.666.373c-.053,0-.047.08,0,.12l.612.353a.226.226,0,0,0,.206,0l.666-.379c.053,0,.047-.08,0-.12l-.612-.353a.226.226,0,0,0-.206.007Z" transform="translate(-378.57 -131.397)"/>
              <path id="パス_2524" data-name="パス 2524" class="cls-14" d="M396.537,143.219l-.666.373a.067.067,0,0,0,0,.12l.619.359a.226.226,0,0,0,.206,0l.666-.373a.067.067,0,0,0,0-.12l-.619-.359a.246.246,0,0,0-.206,0Z" transform="translate(-379.028 -131.142)"/>
              <path id="パス_2525" data-name="パス 2525" class="cls-14" d="M397.917,142.426l-.666.373c-.053,0-.047.08,0,.12l.619.353a.226.226,0,0,0,.206,0l.666-.379c.053,0,.047-.08,0-.113l-.619-.359a.226.226,0,0,0-.206.007Z" transform="translate(-379.49 -130.876)"/>
              <path id="パス_2526" data-name="パス 2526" class="cls-14" d="M399.3,141.629l-.666.373a.072.072,0,0,0,0,.12l.619.359a.213.213,0,0,0,.2,0l.666-.373a.067.067,0,0,0,0-.12l-.619-.359A.246.246,0,0,0,399.3,141.629Z" transform="translate(-379.954 -130.612)"/>
              <path id="パス_2527" data-name="パス 2527" class="cls-14" d="M401.123,140.447l-1.092.632c-.053,0-.047.08,0,.12l.619.353a.226.226,0,0,0,.206,0l1.092-.632c.053,0,.047-.08,0-.12l-.612-.353a.226.226,0,0,0-.213,0Z" transform="translate(-380.419 -130.215)"/>
              <path id="パス_2528" data-name="パス 2528" class="cls-14" d="M383.477,149.218l-.666.373a.067.067,0,0,0,0,.12l.619.36a.226.226,0,0,0,.206,0l.666-.373a.067.067,0,0,0,0-.12l-.619-.359A.226.226,0,0,0,383.477,149.218Z" transform="translate(-374.663 -133.147)"/>
              <path id="パス_2529" data-name="パス 2529" class="cls-14" d="M384.857,148.419l-.666.379c-.053,0-.047.08,0,.113l.619.359a.226.226,0,0,0,.206,0l.666-.373c.053,0,.047-.08,0-.12l-.619-.353A.226.226,0,0,0,384.857,148.419Z" transform="translate(-375.124 -132.881)"/>
              <path id="パス_2530" data-name="パス 2530" class="cls-14" d="M386.237,147.626l-.666.373a.067.067,0,0,0,0,.12l.619.353a.226.226,0,0,0,.206,0l.666-.373a.067.067,0,0,0,0-.12l-.619-.359a.226.226,0,0,0-.206.007Z" transform="translate(-375.585 -132.614)"/>
              <path id="パス_2531" data-name="パス 2531" class="cls-14" d="M387.647,146.829l-.666.373c-.053,0-.047.087,0,.12l.619.359a.226.226,0,0,0,.206,0l.666-.373c.053,0,.047-.087,0-.12l-.619-.359a.246.246,0,0,0-.206,0Z" transform="translate(-376.057 -132.349)"/>
              <path id="パス_2532" data-name="パス 2532" class="cls-14" d="M388.987,146.039l-.666.373c-.053,0-.047.087,0,.12l.619.359a.226.226,0,0,0,.206,0l.666-.373a.067.067,0,0,0,0-.12l-.619-.359a.246.246,0,0,0-.206,0Z" transform="translate(-376.505 -132.085)"/>
              <path id="パス_2533" data-name="パス 2533" class="cls-14" d="M390.367,145.247l-.666.373c-.053,0-.047.08,0,.12l.619.353a.226.226,0,0,0,.206,0l.666-.373c.053,0,.047-.08,0-.12l-.619-.353a.226.226,0,0,0-.206,0Z" transform="translate(-376.966 -131.82)"/>
              <path id="パス_2534" data-name="パス 2534" class="cls-14" d="M391.749,144.448l-.666.373c-.047,0-.04.087,0,.12l.619.359a.233.233,0,0,0,.2,0l.666-.373a.067.067,0,0,0,0-.12l-.619-.359A.226.226,0,0,0,391.749,144.448Z" transform="translate(-377.43 -131.553)"/>
              <path id="パス_2535" data-name="パス 2535" class="cls-14" d="M393.127,143.649l-.666.373a.067.067,0,0,0,0,.12l.612.36a.227.227,0,0,0,.206,0l.666-.373c.053,0,.047-.087,0-.12l-.612-.353a.227.227,0,0,0-.206-.007Z" transform="translate(-377.889 -131.287)"/>
              <path id="パス_2536" data-name="パス 2536" class="cls-14" d="M394.507,142.856l-.666.373c-.053,0-.047.08,0,.12l.612.353a.226.226,0,0,0,.206,0l.666-.379c.053,0,.047-.08,0-.113l-.612-.359a.226.226,0,0,0-.206.007Z" transform="translate(-378.35 -131.019)"/>
              <path id="パス_2537" data-name="パス 2537" class="cls-14" d="M395.877,142.058l-.666.373a.067.067,0,0,0,0,.12l.619.359a.226.226,0,0,0,.206,0l.666-.373a.067.067,0,0,0,0-.12l-.619-.359a.226.226,0,0,0-.206,0Z" transform="translate(-378.808 -130.754)"/>
              <path id="パス_2538" data-name="パス 2538" class="cls-14" d="M397.257,141.259l-.666.379c-.053,0-.047.08,0,.113l.619.359a.226.226,0,0,0,.206,0l.666-.373c.053,0,.047-.08,0-.12l-.619-.353A.226.226,0,0,0,397.257,141.259Z" transform="translate(-379.269 -130.488)"/>
              <path id="パス_2539" data-name="パス 2539" class="cls-14" d="M398.647,140.466l-.666.373a.067.067,0,0,0,0,.12l.619.353a.226.226,0,0,0,.206,0l.666-.373a.067.067,0,0,0,0-.12l-.619-.359A.226.226,0,0,0,398.647,140.466Z" transform="translate(-379.734 -130.22)"/>
              <path id="パス_2540" data-name="パス 2540" class="cls-14" d="M381.886,149.988l-1.085.626a.067.067,0,0,0,0,.12l.619.359a.246.246,0,0,0,.206,0l1.085-.632c.053,0,.047-.08,0-.113l-.619-.359a.226.226,0,0,0-.206,0Z" transform="translate(-373.991 -133.404)"/>
              <path id="パス_2541" data-name="パス 2541" class="cls-14" d="M400.52,139.913l-.666.373a.2.2,0,0,1-.193,0l-.666-.373c-.053,0-.053-.08,0-.113h.053c.047,0,.047-.08,0-.107l-.666-.4a.053.053,0,0,1,0-.107l.406-.24a.2.2,0,0,1,.193,0l.666.373.133.08.1.053.093.053.559.326a.053.053,0,0,1-.013.08Z" transform="translate(-379.863 -129.714)"/>
              <path id="パス_2542" data-name="パス 2542" class="cls-14" d="M377.437,148.088l-.666.373c-.053,0-.047.08,0,.12l.619.353a.226.226,0,0,0,.206,0l.666-.373c.053,0,.047-.08,0-.12l-.619-.353a.226.226,0,0,0-.206,0Z" transform="translate(-372.644 -132.769)"/>
              <path id="パス_2543" data-name="パス 2543" class="cls-14" d="M378.817,147.289l-.666.373c-.053,0-.047.087,0,.12l.612.359a.226.226,0,0,0,.206,0l.666-.373a.067.067,0,0,0,0-.12l-.612-.353a.226.226,0,0,0-.206-.007Z" transform="translate(-373.105 -132.504)"/>
              <path id="パス_2544" data-name="パス 2544" class="cls-14" d="M380.187,146.5l-.666.373a.067.067,0,0,0,0,.12l.619.36a.246.246,0,0,0,.206,0l.666-.373a.067.067,0,0,0,0-.12l-.619-.359a.226.226,0,0,0-.206,0Z" transform="translate(-373.563 -132.238)"/>
              <path id="パス_2545" data-name="パス 2545" class="cls-14" d="M391.877,139.748l-.666.373a.067.067,0,0,0,0,.12l.619.359a.246.246,0,0,0,.206,0l.666-.373a.067.067,0,0,0,0-.12l-.619-.359a.226.226,0,0,0-.206,0Z" transform="translate(-377.471 -129.981)"/>
              <path id="パス_2546" data-name="パス 2546" class="cls-14" d="M393.247,138.986l-.666.373c-.053,0-.047.08,0,.12l.619.353a.226.226,0,0,0,.206,0l.666-.379c.053,0,.047-.08,0-.113l-.619-.359a.226.226,0,0,0-.206.007Z" transform="translate(-377.929 -129.726)"/>
              <path id="パス_2547" data-name="パス 2547" class="cls-14" d="M394.647,138.159l-.666.379c-.053,0-.047.08,0,.113l.612.36a.226.226,0,0,0,.206,0l.666-.373c.053,0,.047-.08,0-.12l-.612-.353A.226.226,0,0,0,394.647,138.159Z" transform="translate(-378.397 -129.452)"/>
              <path id="パス_2548" data-name="パス 2548" class="cls-14" d="M396,137.369l-.666.373a.067.067,0,0,0,0,.12l.619.359a.226.226,0,0,0,.206,0l.666-.373a.067.067,0,0,0,0-.12l-.619-.359A.246.246,0,0,0,396,137.369Z" transform="translate(-378.848 -129.187)"/>
              <path id="パス_2549" data-name="パス 2549" class="cls-14" d="M381.807,145.5l-.885.513c-.053,0-.047.08,0,.12l.619.353a.226.226,0,0,0,.206,0l.885-.513a.072.072,0,0,0,0-.12l-.619-.353A.213.213,0,0,0,381.807,145.5Z" transform="translate(-374.031 -131.903)"/>
              <path id="パス_2550" data-name="パス 2550" class="cls-14" d="M390.4,140.538l-.885.513c-.053,0-.047.08,0,.12l.619.353a.226.226,0,0,0,.206,0l.885-.513a.067.067,0,0,0,0-.12l-.619-.353A.226.226,0,0,0,390.4,140.538Z" transform="translate(-376.902 -130.245)"/>
              <path id="パス_2551" data-name="パス 2551" class="cls-14" d="M386.952,141.538l-4.3,2.483a.067.067,0,0,0,0,.12l.619.359a.226.226,0,0,0,.206,0l4.3-2.483a.067.067,0,0,0,0-.12l-.619-.359a.226.226,0,0,0-.206,0Z" transform="translate(-374.609 -130.58)"/>
              <path id="パス_2552" data-name="パス 2552" class="cls-14" d="M382.517,148.229l-.666.379c-.053,0-.047.08,0,.113l.619.359a.226.226,0,0,0,.206,0l.666-.373c.053,0,.047-.08,0-.12l-.619-.353A.226.226,0,0,0,382.517,148.229Z" transform="translate(-374.342 -132.818)"/>
              <path id="パス_2553" data-name="パス 2553" class="cls-14" d="M383.9,147.438l-.666.373a.067.067,0,0,0,0,.12l.619.36a.246.246,0,0,0,.206,0l.666-.373a.067.067,0,0,0,0-.12l-.619-.359A.226.226,0,0,0,383.9,147.438Z" transform="translate(-374.803 -132.552)"/>
              <path id="パス_2554" data-name="パス 2554" class="cls-14" d="M385.267,146.648l-.666.373c-.053,0-.047.08,0,.12l.619.353a.226.226,0,0,0,.206,0l.666-.373c.053,0,.047-.08,0-.12l-.619-.353A.226.226,0,0,0,385.267,146.648Z" transform="translate(-375.261 -132.288)"/>
              <path id="パス_2555" data-name="パス 2555" class="cls-14" d="M386.647,145.849l-.666.373a.067.067,0,0,0,0,.12l.619.359a.226.226,0,0,0,.206,0l.666-.373a.067.067,0,0,0,0-.12l-.619-.359A.246.246,0,0,0,386.647,145.849Z" transform="translate(-375.722 -132.022)"/>
              <path id="パス_2556" data-name="パス 2556" class="cls-14" d="M388.017,145.056l-.666.373a.067.067,0,0,0,0,.12l.619.353a.226.226,0,0,0,.206,0l.666-.373a.067.067,0,0,0,0-.12l-.619-.359a.226.226,0,0,0-.206.007Z" transform="translate(-376.18 -131.755)"/>
              <path id="パス_2557" data-name="パス 2557" class="cls-14" d="M389.4,144.259l-.666.379c-.053,0-.047.08,0,.113l.619.359a.226.226,0,0,0,.206,0l.666-.373c.053,0,.047-.08,0-.12l-.619-.353a.226.226,0,0,0-.206-.007Z" transform="translate(-376.642 -131.491)"/>
              <path id="パス_2558" data-name="パス 2558" class="cls-14" d="M390.777,143.467l-.666.373a.067.067,0,0,0,0,.12l.619.359a.246.246,0,0,0,.206,0l.666-.373a.067.067,0,0,0,0-.12l-.619-.359A.213.213,0,0,0,390.777,143.467Z" transform="translate(-377.103 -131.224)"/>
              <path id="パス_2559" data-name="パス 2559" class="cls-14" d="M392.147,142.678l-.666.373c-.053,0-.047.08,0,.12l.619.353a.227.227,0,0,0,.206,0l.666-.373c.053,0,.047-.08,0-.12l-.619-.353A.226.226,0,0,0,392.147,142.678Z" transform="translate(-377.561 -130.961)"/>
              <path id="パス_2560" data-name="パス 2560" class="cls-14" d="M393.527,141.879l-.666.373a.067.067,0,0,0,0,.12l.612.359a.226.226,0,0,0,.206,0l.666-.373a.072.072,0,0,0,0-.12l-.612-.359A.246.246,0,0,0,393.527,141.879Z" transform="translate(-378.022 -130.695)"/>
              <path id="パス_2561" data-name="パス 2561" class="cls-14" d="M394.9,141.086l-.666.373a.067.067,0,0,0,0,.12l.619.353a.226.226,0,0,0,.206,0l.666-.373a.067.067,0,0,0,0-.12l-.619-.359a.226.226,0,0,0-.206.007Z" transform="translate(-378.48 -130.428)"/>
              <path id="パス_2562" data-name="パス 2562" class="cls-14" d="M396.277,140.289l-.666.379c-.053,0-.047.08,0,.113l.612.359a.226.226,0,0,0,.206,0l.666-.373c.053,0,.047-.08,0-.12l-.612-.353A.226.226,0,0,0,396.277,140.289Z" transform="translate(-378.942 -130.164)"/>
              <path id="パス_2563" data-name="パス 2563" class="cls-14" d="M397.647,139.5l-.666.373a.067.067,0,0,0,0,.12l.619.359a.246.246,0,0,0,.206,0l.666-.373a.067.067,0,0,0,0-.12l-.619-.359A.226.226,0,0,0,397.647,139.5Z" transform="translate(-379.4 -129.898)"/>
              <path id="パス_2564" data-name="パス 2564" class="cls-14" d="M380.813,148.986l-1.331.772a.067.067,0,0,0,0,.12l.619.353a.226.226,0,0,0,.206,0l1.331-.772a.067.067,0,0,0,0-.12l-.619-.359A.226.226,0,0,0,380.813,148.986Z" transform="translate(-373.55 -133.068)"/>
              <path id="パス_2565" data-name="パス 2565" class="cls-14" d="M380.507,147.856l-.666.373c-.053,0-.047.087,0,.12l.612.353a.226.226,0,0,0,.206,0l.666-.373c.053,0,.047-.087,0-.12l-.612-.359A.226.226,0,0,0,380.507,147.856Z" transform="translate(-373.67 -132.691)"/>
              <path id="パス_2566" data-name="パス 2566" class="cls-14" d="M381.877,147.059l-.666.379c-.053,0-.047.08,0,.113l.619.359a.226.226,0,0,0,.206,0l.666-.373c.053,0,.047-.08,0-.12l-.619-.353A.226.226,0,0,0,381.877,147.059Z" transform="translate(-374.128 -132.427)"/>
              <path id="パス_2567" data-name="パス 2567" class="cls-14" d="M383.257,146.268l-.666.373c-.053,0-.047.087,0,.12l.612.359a.246.246,0,0,0,.206,0l.666-.373c.053,0,.047-.087,0-.12l-.613-.359a.226.226,0,0,0-.206,0Z" transform="translate(-374.589 -132.161)"/>
              <path id="パス_2568" data-name="パス 2568" class="cls-14" d="M384.647,145.478l-.666.373c-.053,0-.047.08,0,.12l.619.353a.206.206,0,0,0,.206,0l.666-.373c.053,0,.047-.08,0-.12l-.619-.353A.226.226,0,0,0,384.647,145.478Z" transform="translate(-375.054 -131.897)"/>
              <path id="パス_2569" data-name="パス 2569" class="cls-14" d="M386.007,144.679l-.666.373a.067.067,0,0,0,0,.12l.612.36a.227.227,0,0,0,.206,0l.666-.373c.053,0,.047-.087,0-.12l-.612-.359A.246.246,0,0,0,386.007,144.679Z" transform="translate(-375.508 -131.631)"/>
              <path id="パス_2570" data-name="パス 2570" class="cls-14" d="M387.377,143.886l-.666.373c-.053,0-.047.087,0,.12l.619.353a.226.226,0,0,0,.206,0l.666-.373c.053,0,.047-.087,0-.12l-.619-.359a.226.226,0,0,0-.206.007Z" transform="translate(-375.966 -131.364)"/>
              <path id="パス_2571" data-name="パス 2571" class="cls-14" d="M388.757,143.089l-.666.379c-.053,0-.047.08,0,.113l.612.359a.226.226,0,0,0,.206,0l.666-.373c.053,0,.047-.08,0-.12l-.612-.353A.226.226,0,0,0,388.757,143.089Z" transform="translate(-376.428 -131.1)"/>
              <path id="パス_2572" data-name="パス 2572" class="cls-14" d="M390.127,142.3l-.666.373c-.053,0-.047.087,0,.12l.619.359a.226.226,0,0,0,.206,0l.666-.373c.053,0,.047-.087,0-.12l-.619-.359A.226.226,0,0,0,390.127,142.3Z" transform="translate(-376.886 -130.834)"/>
              <path id="パス_2573" data-name="パス 2573" class="cls-14" d="M391.507,141.506l-.666.373c-.053,0-.047.08,0,.12l.612.353a.226.226,0,0,0,.206,0l.666-.379c.053,0,.047-.08,0-.113l-.612-.359A.226.226,0,0,0,391.507,141.506Z" transform="translate(-377.347 -130.568)"/>
              <path id="パス_2574" data-name="パス 2574" class="cls-14" d="M392.877,140.709l-.666.373a.067.067,0,0,0,0,.12l.619.359a.226.226,0,0,0,.206,0l.666-.373c.053,0,.047-.087,0-.12l-.619-.353a.226.226,0,0,0-.206-.007Z" transform="translate(-377.805 -130.304)"/>
              <path id="パス_2575" data-name="パス 2575" class="cls-14" d="M394.257,139.916l-.666.373c-.053,0-.047.087,0,.12l.612.353a.226.226,0,0,0,.206,0l.666-.373c.053,0,.047-.087,0-.12l-.612-.359A.226.226,0,0,0,394.257,139.916Z" transform="translate(-378.266 -130.036)"/>
              <path id="パス_2576" data-name="パス 2576" class="cls-14" d="M396.765,138.14l-1.784,1.032c-.053,0-.047.08,0,.12l.619.353a.226.226,0,0,0,.206,0l1.777-1.025c.053,0,.047-.087,0-.12l-.619-.353a.226.226,0,0,0-.2-.007Z" transform="translate(-378.731 -129.446)"/>
              <path id="パス_2577" data-name="パス 2577" class="cls-14" d="M379.019,148.649l-.885.513c-.047,0-.04.08,0,.12l.619.353a.213.213,0,0,0,.2,0l.885-.506c.053,0,.047-.087,0-.12l-.619-.359a.246.246,0,0,0-.2,0Z" transform="translate(-373.101 -132.958)"/>
              <path id="パス_2578" data-name="パス 2578" class="cls-14" d="M396.523,141.247l-13,7.509c-.053,0-.047.08,0,.12l.313.173a.226.226,0,0,0,.206,0l12.995-7.509a.067.067,0,0,0,0-.12l-.306-.18A.246.246,0,0,0,396.523,141.247Z" transform="translate(-374.9 -130.482)"/>
              <path id="_Контур_18" data-name="&lt;Контур&gt;" class="cls-21" d="M380.22,140.58l.087.053,2.243,1.3,3.994-2.31.08-.047-2.33-1.345Z" transform="translate(-373.809 -129.482)"/>
              <path id="_Контур_19" data-name="&lt;Контур&gt;" class="cls-22" d="M380.35,140.68l2.243,1.3,3.994-2.31-2.25-1.3Z" transform="translate(-373.853 -129.529)"/>
              <path id="_Контур_20" data-name="&lt;Контур&gt;" class="cls-22" d="M370.59,144.451v.2a.826.826,0,0,0,.413.712l7.915,4.567a.772.772,0,0,0,.413.113.752.752,0,0,0,.406-.113l14.326-8.268a.812.812,0,0,0,.413-.712v-.2L379.331,149.5Z" transform="translate(-370.59 -130.325)"/>
              <path id="_Контур_21" data-name="&lt;Контур&gt;" class="cls-16" d="M384.07,144.473a.945.945,0,0,0,.832-.067l14.266-8.235a.965.965,0,0,0,.473-.666l1.558-9.32a.66.66,0,0,0,0-.16.959.959,0,0,0-.286-.666l-14.826,8.561a.746.746,0,0,0-.346.5Z" transform="translate(-375.096 -125.18)"/>
              <path id="_Контур_22" data-name="&lt;Контур&gt;" class="cls-22" d="M383.72,144.263l.1.053.133.067,1.684-10.079a.746.746,0,0,1,.346-.5l14.826-8.561a.934.934,0,0,0-.2-.153l-14.852,8.594a.666.666,0,0,0-.346.5Z" transform="translate(-374.979 -125.09)"/>
            </g>
          </g>
          <path id="_Контур_23" data-name="&lt;Контур&gt;" class="cls-15" d="M366.533,94s.18,3.548.1,3.861-1.624,1.331-2.077,1.724,2.45,3.235,3.861,3.881,5.878-1.058,5.958-3.255-.766-4.034-1.451-4.134S366.533,94,366.533,94Z" transform="translate(-358.598 -82.902)"/>
          <path id="_Контур_24" data-name="&lt;Контур&gt;" class="cls-16" d="M364.849,99.171s2.57,3.828,6.158,4.194c1.132-1.118,1.238-5.086-.333-6.351,0,0,1.438-1.165,2.423-.939a5.066,5.066,0,0,1,2.217,2.829,23.048,23.048,0,0,1,1.265,8.2c-.06,3.755,0,13.261,0,13.261a8.089,8.089,0,0,1-3.781,5.439,11.67,11.67,0,0,1-8.515,1.178,4.238,4.238,0,0,1-3.122-2.763c.166-2.663,1.2-8.055.772-11.37s-1.145-5.785-1.331-8.468.353-2.623,1.7-3.575a21.07,21.07,0,0,1,2.55-1.638Z" transform="translate(-357.28 -83.586)"/>
          <path id="_Контур_25" data-name="&lt;Контур&gt;" class="cls-15" d="M367.523,132.316a17.308,17.308,0,0,0-2-1.152,4.261,4.261,0,0,1-1.724-1.045,17.935,17.935,0,0,1-2.4-5.233,23.526,23.526,0,0,1-.865-7.909c.313-3.2,1.465-7.669,1.758-9.506a2.911,2.911,0,0,0-1.158-3.242c-1.005-.8-2.39-.446-3.129,2.13a49.87,49.87,0,0,0-1.664,10.9,24.67,24.67,0,0,0,1.252,8.062,28.966,28.966,0,0,0,3.069,6.331c.353.6.466,1.125,1.005,2.337a8.181,8.181,0,0,0,2.357,3.129c.9.666,1.331.739,1.538.619s.213-.446-.166-.792a6.658,6.658,0,0,1-1.6-1.8s.786.792,1.331,1.225a7.223,7.223,0,0,0,1.5.959c.533.226,1.258-.22.892-.572s-.759-.526-1.511-1.178a6.527,6.527,0,0,1-1.065-1.158,12.693,12.693,0,0,0,1.671,1.078,2.776,2.776,0,0,0,1.485.4c.28,0,.619-.4.1-.779a10.055,10.055,0,0,1-2-1.331c-.572-.573-.9-1.058-.739-1.065s.473.346,1.152.559,1.4,0,1.485-.353S368.156,132.629,367.523,132.316Z" transform="translate(-355.866 -86.195)"/>
          <path id="_Контур_26" data-name="&lt;Контур&gt;" class="cls-15" d="M374.375,83.745h0c-.419-2.749-2.4-4.833-5.239-4.66A5.479,5.479,0,0,0,364,84.837a5.406,5.406,0,0,0,2.357,4.174,5.851,5.851,0,0,0,.439,1.2c1.005,1.172,4.041,1.9,4.913,1.771a2.6,2.6,0,0,0,2.277-1.831A12.578,12.578,0,0,0,374.375,83.745Z" transform="translate(-358.424 -77.913)"/>
          <path id="パス_2579" data-name="パス 2579" class="cls-14" d="M365.841,88.428h0l.266-2.4s-1.964-5.079,2.663-4.1c3.056.666,3.828.919,4.753-1.132s-2.35-3.894-6.244-3.382a5.379,5.379,0,0,0-4.82,5.466C362.566,84.433,362.965,87.456,365.841,88.428Z" transform="translate(-357.913 -77.33)"/>
          <path id="パス_2580" data-name="パス 2580" class="cls-20" d="M355.63,110.928s2.53,2.51,5.519,1.791c.433-.293,1.458-6.171,1.458-6.171s0-3.255-2.5-3.169S355.63,110.928,355.63,110.928Z" transform="translate(-355.63 -86.037)"/>
          <path id="パス_2581" data-name="パス 2581" class="cls-20" d="M382.649,103.629a2.776,2.776,0,0,0,1.871-.832c-.1-1.331-1.784-6.318-5.179-6.657a6.245,6.245,0,0,1,2.124,2.556A33.332,33.332,0,0,1,382.649,103.629Z" transform="translate(-363.556 -83.618)"/>
        </g>
      </g>
    </g>
  </g>
</svg>
